<?xml version="1.0" standalone="no"?><!DOCTYPE svg PUBLIC "-//W3C//DTD SVG 1.1//EN" "http://www.w3.org/Graphics/SVG/1.1/DTD/svg11.dtd"><svg t="1561796744687" class="icon" viewBox="0 0 1055 1024" version="1.1" xmlns="http://www.w3.org/2000/svg" p-id="11883" xmlns:xlink="http://www.w3.org/1999/xlink" width="206.0546875" height="200"><defs><style type="text/css"></style></defs><path d="M777.700165 232.241625a358.765513 358.765513 0 0 0-304.500824-168.698517A359.89017 359.89017 0 0 0 114.433828 421.746293v196.814937s-125.118067 105.436573-112.465679 216.215266h610.407469s-168.698517-94.752334-140.582098-333.460735 305.906645-269.074135 305.906645-269.074136z" p-id="11884"></path><path d="M347.80011 0m106.280066 0l18.275672 0q106.280066 0 106.280066 106.280066l0 121.181768q0 106.280066-106.280066 106.280066l-18.275672 0q-106.280066 0-106.280066-106.280066l0-121.181768q0-106.280066 106.280066-106.280066Z" p-id="11885"></path><path d="M610.126304 902.537068c0 66.917079-65.792422 121.462932-146.76771 121.462932s-147.048874-54.545854-147.048874-121.462932M1000.944536 558.392092a61.01263 61.01263 0 0 1 53.421197-60.450302 264.01318 264.01318 0 0 0-28.116419-71.69687 60.731466 60.731466 0 0 1-84.349259-86.317408 256.421746 256.421746 0 0 0-79.569467-33.739703 14.339374 14.339374 0 0 1 0 3.655134 61.293795 61.293795 0 0 1-122.306425 0v-3.655134a256.421746 256.421746 0 0 0-79.569468 33.739703 60.450302 60.450302 0 0 1-47.516749 98.688633 61.574959 61.574959 0 0 1-36.551345-12.371225 263.450851 263.450851 0 0 0-28.11642 71.134542 61.01263 61.01263 0 0 1 0 122.025261 261.763866 261.763866 0 0 0 34.302032 81.537616 60.731466 60.731466 0 0 1 86.879736 84.349259A257.546403 257.546403 0 0 0 740.305327 815.376167 60.731466 60.731466 0 0 1 843.492586 778.262493a59.325645 59.325645 0 0 1 17.432181 37.113674 261.763866 261.763866 0 0 0 80.41296-34.020868 60.731466 60.731466 0 0 1 84.349258-86.879736 256.140582 256.140582 0 0 0 29.522241-75.914333 60.731466 60.731466 0 0 1-54.26469-60.169138z" p-id="11886"></path><path d="M800.755629 560.360242m-107.404723 0a107.404723 107.404723 0 1 0 214.809445 0 107.404723 107.404723 0 1 0-214.809445 0Z" p-id="11887"></path></svg>