<?xml version="1.0" standalone="no"?><!DOCTYPE svg PUBLIC "-//W3C//DTD SVG 1.1//EN" "http://www.w3.org/Graphics/SVG/1.1/DTD/svg11.dtd"><svg t="1561795903187" class="icon" viewBox="0 0 1024 1024" version="1.1" xmlns="http://www.w3.org/2000/svg" p-id="2717" xmlns:xlink="http://www.w3.org/1999/xlink" width="200" height="200"><defs><style type="text/css"></style></defs><path d="M512 64c-179.18 0-333.79 105.2-405.45 257.2a448 448 0 0 0 0 381.6C178.21 854.8 332.82 960 512 960c247.42 0 448-200.58 448-448S759.42 64 512 64zM128 512a382.18 382.18 0 0 1 21.22-126.25 128 128 0 0 1 0 252.51A382.18 382.18 0 0 1 128 512z m655.53 271.53A384.25 384.25 0 0 1 175.94 698a192.06 192.06 0 0 0 0-371.93 384.08 384.08 0 1 1 607.59 457.46z" p-id="2718"></path><path d="M864 256H160v64h704v-64zM864 704H160v64h704v-64zM480 352H352v128h128V352zM480 544H352v128h128V544zM640 352H512v128h128V352zM640 544H512v128h128V544zM800 352H672v128h128V352zM800 544H672v128h128V544z" p-id="2719"></path></svg>