<?xml version="1.0" standalone="no"?><!DOCTYPE svg PUBLIC "-//W3C//DTD SVG 1.1//EN" "http://www.w3.org/Graphics/SVG/1.1/DTD/svg11.dtd"><svg t="1561796067242" class="icon" viewBox="0 0 1024 1024" version="1.1" xmlns="http://www.w3.org/2000/svg" p-id="5029" xmlns:xlink="http://www.w3.org/1999/xlink" width="200" height="200"><defs><style type="text/css"></style></defs><path d="M516.869 10.79c-277.252 0-502.014 224.764-502.014 502.014s224.762 502.014 502.014 502.014c277.249 0 502.009-224.764 502.009-502.014C1018.877 235.552 794.118 10.79 516.869 10.79zM489.184 741.873l-30.18 29.215c-27.422 26.535-63.455 39.785-99.46 39.785-36.017 0-72.02-13.255-99.427-39.775-26.657-25.79-41.317-60.085-41.317-96.57 0-36.51 14.662-70.815 41.302-96.62l111.042-107.422c69.032-66.777 148.285-76.37 201.934-24.48 14.46 14.005 14.55 36.815 0.18 50.922-14.37 14.125-37.745 14.217-52.24 0.185-31.542-30.505-74.822 2.25-97.835 24.51l-111.04 107.43c-12.565 12.135-19.457 28.295-19.457 45.47 0 17.16 6.892 33.31 19.457 45.455 26.135 25.295 68.665 25.26 94.797 0l30.182-29.22c14.477-13.995 37.87-13.925 52.242 0.185C503.739 705.058 503.661 727.868 489.184 741.873zM773.618 466.689l-118.455 114.58c-36.605 35.425-75.07 53.315-111.505 53.315-29.75 0-58.152-11.93-83.002-35.99-14.492-14.02-14.582-36.825-0.185-50.93 14.372-14.115 37.75-14.21 52.227-0.19 10.835 10.49 36.27 35.095 90.405-17.315l118.49-114.592c12.54-12.152 19.45-28.315 19.45-45.487 0-17.16-6.9-33.305-19.485-45.47-23.585-22.812-59.75-33.905-87.38-7.155l-37.58 36.387c-14.48 14.002-37.86 13.925-52.245-0.185-14.385-14.122-14.29-36.922 0.2-50.94l37.595-36.385c53.31-51.597 133.865-48.565 191.469 7.17 26.64 25.797 41.32 60.085 41.32 96.577C814.938 406.589 800.258 440.891 773.618 466.689z" p-id="5030"></path></svg>